<mxfile host="Electron" modified="2023-05-31T04:13:08.424Z" agent="Mozilla/5.0 (Windows NT 10.0; Win64; x64) AppleWebKit/537.36 (KHTML, like Gecko) draw.io/21.2.8 Chrome/112.0.5615.165 Electron/24.2.0 Safari/537.36" etag="byGYbRVYxylRMInSdN28" version="21.2.8" type="device">
  <diagram name="第 1 页" id="kdWezK6QogzWTmD4Oa5h">
    <mxGraphModel dx="1418" dy="820" grid="1" gridSize="10" guides="1" tooltips="1" connect="1" arrows="1" fold="1" page="1" pageScale="1" pageWidth="827" pageHeight="1169" background="none" math="0" shadow="0">
      <root>
        <mxCell id="0" />
        <mxCell id="1" parent="0" />
        <mxCell id="Tr7zeIwl_iddxx69zMZ0-5" value="&lt;p style=&quot;margin:0px;margin-top:4px;text-align:center;&quot;&gt;&lt;b&gt;Singleton&lt;/b&gt;&lt;/p&gt;&lt;hr size=&quot;1&quot;&gt;&lt;p style=&quot;margin:0px;margin-left:4px;&quot;&gt;+ ...&lt;/p&gt;&lt;hr size=&quot;1&quot;&gt;&lt;p style=&quot;margin:0px;margin-left:4px;&quot;&gt;+ static getInstance()&lt;/p&gt;&lt;p style=&quot;margin:0px;margin-left:4px;&quot;&gt;- Singleton()&lt;/p&gt;" style="verticalAlign=top;align=left;overflow=fill;fontSize=12;fontFamily=Helvetica;html=1;whiteSpace=wrap;fillColor=#dae8fc;strokeColor=#6c8ebf;rounded=1;sketch=1;curveFitting=1;jiggle=2;" parent="1" vertex="1">
          <mxGeometry x="320" y="140" width="160" height="90" as="geometry" />
        </mxCell>
        <mxCell id="lzZIdhdN_AgxSEgtCUVz-1" value="&lt;span style=&quot;white-space: pre;&quot;&gt;	&lt;/span&gt;static Singleton&amp;amp; getInstance(){&lt;br&gt;&lt;span style=&quot;white-space: pre;&quot;&gt;	&lt;span style=&quot;white-space: pre;&quot;&gt;	&lt;/span&gt;s&lt;/span&gt;tatic Singleton sg();&lt;br&gt;&lt;span style=&quot;white-space: pre;&quot;&gt;	&lt;/span&gt;&lt;span style=&quot;white-space: pre;&quot;&gt;	&lt;/span&gt;return sg;&lt;br&gt;&lt;span style=&quot;white-space: pre;&quot;&gt;	&lt;/span&gt;}" style="shape=note;size=20;whiteSpace=wrap;html=1;fillColor=#f8cecc;strokeColor=#b85450;shadow=1;sketch=1;curveFitting=1;jiggle=2;align=left;" vertex="1" parent="1">
          <mxGeometry x="540" y="130" width="210" height="100" as="geometry" />
        </mxCell>
        <mxCell id="lzZIdhdN_AgxSEgtCUVz-11" style="edgeStyle=orthogonalEdgeStyle;rounded=0;orthogonalLoop=1;jettySize=auto;html=1;exitX=0.5;exitY=1;exitDx=0;exitDy=0;" edge="1" parent="1" source="lzZIdhdN_AgxSEgtCUVz-3">
          <mxGeometry relative="1" as="geometry">
            <mxPoint x="205" y="370" as="targetPoint" />
          </mxGeometry>
        </mxCell>
        <mxCell id="lzZIdhdN_AgxSEgtCUVz-3" value="" style="ellipse;html=1;shape=startState;fillColor=#000000;strokeColor=#ff0000;" vertex="1" parent="1">
          <mxGeometry x="190" y="290" width="30" height="30" as="geometry" />
        </mxCell>
        <mxCell id="lzZIdhdN_AgxSEgtCUVz-4" value="" style="edgeStyle=orthogonalEdgeStyle;html=1;verticalAlign=bottom;endArrow=open;endSize=8;strokeColor=#ff0000;rounded=0;" edge="1" source="lzZIdhdN_AgxSEgtCUVz-7" parent="1">
          <mxGeometry relative="1" as="geometry">
            <mxPoint x="205" y="770" as="targetPoint" />
            <Array as="points">
              <mxPoint x="205" y="545" />
              <mxPoint x="205" y="545" />
            </Array>
          </mxGeometry>
        </mxCell>
        <mxCell id="lzZIdhdN_AgxSEgtCUVz-5" value="bool init()" style="shape=umlLifeline;perimeter=lifelinePerimeter;whiteSpace=wrap;html=1;container=1;dropTarget=0;collapsible=0;recursiveResize=0;outlineConnect=0;portConstraint=eastwest;newEdgeStyle={&quot;edgeStyle&quot;:&quot;elbowEdgeStyle&quot;,&quot;elbow&quot;:&quot;vertical&quot;,&quot;curved&quot;:0,&quot;rounded&quot;:0};" vertex="1" parent="1">
          <mxGeometry x="350" y="285" width="100" height="465" as="geometry" />
        </mxCell>
        <mxCell id="lzZIdhdN_AgxSEgtCUVz-8" value="" style="edgeStyle=orthogonalEdgeStyle;html=1;verticalAlign=bottom;endArrow=open;endSize=8;strokeColor=#ff0000;rounded=0;" edge="1" parent="1" source="lzZIdhdN_AgxSEgtCUVz-9" target="lzZIdhdN_AgxSEgtCUVz-7">
          <mxGeometry relative="1" as="geometry">
            <mxPoint x="205" y="770" as="targetPoint" />
            <mxPoint x="205" y="320" as="sourcePoint" />
            <Array as="points">
              <mxPoint x="205" y="490" />
              <mxPoint x="205" y="490" />
            </Array>
          </mxGeometry>
        </mxCell>
        <mxCell id="lzZIdhdN_AgxSEgtCUVz-7" value="main" style="html=1;points=[];perimeter=orthogonalPerimeter;outlineConnect=0;targetShapes=umlLifeline;portConstraint=eastwest;newEdgeStyle={&quot;edgeStyle&quot;:&quot;elbowEdgeStyle&quot;,&quot;elbow&quot;:&quot;vertical&quot;,&quot;curved&quot;:0,&quot;rounded&quot;:0};" vertex="1" parent="1">
          <mxGeometry x="190" y="505" width="30" height="175" as="geometry" />
        </mxCell>
        <mxCell id="lzZIdhdN_AgxSEgtCUVz-9" value="static&lt;br&gt;var" style="html=1;points=[];perimeter=orthogonalPerimeter;outlineConnect=0;targetShapes=umlLifeline;portConstraint=eastwest;newEdgeStyle={&quot;edgeStyle&quot;:&quot;elbowEdgeStyle&quot;,&quot;elbow&quot;:&quot;vertical&quot;,&quot;curved&quot;:0,&quot;rounded&quot;:0};" vertex="1" parent="1">
          <mxGeometry x="190" y="370" width="30" height="95" as="geometry" />
        </mxCell>
        <mxCell id="lzZIdhdN_AgxSEgtCUVz-14" value="true" style="html=1;verticalAlign=bottom;endArrow=open;dashed=1;endSize=8;edgeStyle=elbowEdgeStyle;elbow=vertical;curved=0;rounded=0;" edge="1" parent="1" source="lzZIdhdN_AgxSEgtCUVz-5">
          <mxGeometry relative="1" as="geometry">
            <mxPoint x="300" y="440" as="sourcePoint" />
            <mxPoint x="220" y="440" as="targetPoint" />
          </mxGeometry>
        </mxCell>
        <mxCell id="lzZIdhdN_AgxSEgtCUVz-15" value="" style="html=1;verticalAlign=bottom;endArrow=block;edgeStyle=elbowEdgeStyle;elbow=vertical;curved=0;rounded=0;" edge="1" parent="1" source="lzZIdhdN_AgxSEgtCUVz-9" target="lzZIdhdN_AgxSEgtCUVz-5">
          <mxGeometry x="0.1142" y="18" width="80" relative="1" as="geometry">
            <mxPoint x="230" y="400" as="sourcePoint" />
            <mxPoint x="350" y="400" as="targetPoint" />
            <Array as="points">
              <mxPoint x="300" y="400" />
            </Array>
            <mxPoint as="offset" />
          </mxGeometry>
        </mxCell>
        <mxCell id="lzZIdhdN_AgxSEgtCUVz-16" value="&amp;nbsp;&lt;span style=&quot;white-space: pre;&quot;&gt;	&lt;/span&gt;bool init() {&lt;br&gt;&lt;span style=&quot;white-space: pre;&quot;&gt;	&lt;span style=&quot;white-space: pre;&quot;&gt;	&lt;/span&gt;a&lt;/span&gt;uto&amp;amp; t = Singleton::getInstance();&lt;br&gt;&lt;span style=&quot;white-space: pre;&quot;&gt;	&lt;/span&gt;&lt;span style=&quot;white-space: pre;&quot;&gt;	&lt;/span&gt;return true;&lt;br&gt;&lt;span style=&quot;white-space: pre;&quot;&gt;	&lt;/span&gt;}" style="shape=note;size=20;whiteSpace=wrap;html=1;fillColor=#f8cecc;strokeColor=#b85450;shadow=1;sketch=1;curveFitting=1;jiggle=2;align=left;" vertex="1" parent="1">
          <mxGeometry x="450" y="340" width="240" height="100" as="geometry" />
        </mxCell>
        <mxCell id="lzZIdhdN_AgxSEgtCUVz-20" value="" style="html=1;verticalAlign=bottom;endArrow=block;edgeStyle=elbowEdgeStyle;elbow=vertical;curved=0;rounded=0;" edge="1" parent="1">
          <mxGeometry width="80" relative="1" as="geometry">
            <mxPoint x="400" y="410" as="sourcePoint" />
            <mxPoint x="760" y="410" as="targetPoint" />
          </mxGeometry>
        </mxCell>
        <mxCell id="lzZIdhdN_AgxSEgtCUVz-23" value="" style="html=1;verticalAlign=bottom;endArrow=open;dashed=1;endSize=8;edgeStyle=elbowEdgeStyle;elbow=vertical;curved=0;rounded=0;" edge="1" parent="1">
          <mxGeometry relative="1" as="geometry">
            <mxPoint x="760" y="430" as="sourcePoint" />
            <mxPoint x="400" y="430" as="targetPoint" />
          </mxGeometry>
        </mxCell>
        <mxCell id="lzZIdhdN_AgxSEgtCUVz-27" value="Singleton" style="shape=umlLifeline;perimeter=lifelinePerimeter;whiteSpace=wrap;html=1;container=1;dropTarget=0;collapsible=0;recursiveResize=0;outlineConnect=0;portConstraint=eastwest;newEdgeStyle={&quot;edgeStyle&quot;:&quot;elbowEdgeStyle&quot;,&quot;elbow&quot;:&quot;vertical&quot;,&quot;curved&quot;:0,&quot;rounded&quot;:0};" vertex="1" parent="1">
          <mxGeometry x="710" y="280" width="100" height="480" as="geometry" />
        </mxCell>
        <mxCell id="lzZIdhdN_AgxSEgtCUVz-28" value="" style="html=1;points=[];perimeter=orthogonalPerimeter;outlineConnect=0;targetShapes=umlLifeline;portConstraint=eastwest;newEdgeStyle={&quot;edgeStyle&quot;:&quot;elbowEdgeStyle&quot;,&quot;elbow&quot;:&quot;vertical&quot;,&quot;curved&quot;:0,&quot;rounded&quot;:0};" vertex="1" parent="lzZIdhdN_AgxSEgtCUVz-27">
          <mxGeometry x="45" y="265" width="10" height="80" as="geometry" />
        </mxCell>
        <mxCell id="lzZIdhdN_AgxSEgtCUVz-29" value="" style="html=1;verticalAlign=bottom;endArrow=block;edgeStyle=elbowEdgeStyle;elbow=vertical;curved=0;rounded=0;" edge="1" target="lzZIdhdN_AgxSEgtCUVz-28" parent="lzZIdhdN_AgxSEgtCUVz-27">
          <mxGeometry relative="1" as="geometry">
            <mxPoint x="-480" y="260" as="sourcePoint" />
          </mxGeometry>
        </mxCell>
        <mxCell id="lzZIdhdN_AgxSEgtCUVz-30" value="return sg" style="html=1;verticalAlign=bottom;endArrow=open;dashed=1;endSize=8;edgeStyle=elbowEdgeStyle;elbow=vertical;curved=0;rounded=0;entryX=1;entryY=0.714;entryDx=0;entryDy=0;entryPerimeter=0;" edge="1" source="lzZIdhdN_AgxSEgtCUVz-28" parent="1" target="lzZIdhdN_AgxSEgtCUVz-7">
          <mxGeometry x="-0.0017" relative="1" as="geometry">
            <mxPoint x="680" y="615" as="targetPoint" />
            <mxPoint as="offset" />
          </mxGeometry>
        </mxCell>
      </root>
    </mxGraphModel>
  </diagram>
</mxfile>
